<?xml version="1.0" encoding="iso-8859-1"?>
<!-- Uploaded to: SVG Repo, www.svgrepo.com, Generator: SVG Repo Mixer Tools -->
<svg fill="#000000" height="800px" width="800px" version="1.1" id="Layer_1" xmlns="http://www.w3.org/2000/svg" xmlns:xlink="http://www.w3.org/1999/xlink" 
	 viewBox="0 0 512 512" xml:space="preserve">
<g>
	<g>
		<path d="M396.411,178.007L407.315,0h-302.63l10.904,178.008H99.153v63.432c0,31.183,25.368,56.551,56.552,56.551h41.57
			l-11.227,138.14c-1.583,19.479,5.107,38.892,18.354,53.26C217.65,503.759,236.457,512,256.001,512s38.351-8.241,51.598-22.609
			c13.247-14.368,19.938-33.781,18.354-53.26l-11.227-138.14h41.57c31.183,0,56.552-25.369,56.552-56.552v-63.432H396.411z
			 M174,33.391v72.308h33.391V33.391h31.913V85.8h33.391V33.391h31.912v72.308H338V33.391h33.815l-8.859,144.617H149.045
			l-8.86-144.617H174z M283.05,466.757c-7.047,7.642-16.653,11.852-27.049,11.852c-10.396,0-20.002-4.21-27.05-11.852
			c-7.047-7.643-10.464-17.558-9.622-27.921l11.448-140.845h50.449l11.448,140.845C293.515,449.199,290.098,459.114,283.05,466.757z
			 M379.457,241.439c0,12.77-10.389,23.16-23.16,23.16H155.704c-12.77,0-23.16-10.389-23.16-23.16v-30.041h246.913V241.439z"/>
	</g>
</g>
</svg>